<?xml version="1.0" encoding="UTF-8" standalone="no"?>
<!-- Created with Inkscape (http://www.inkscape.org/) -->

<svg
   xmlns:dc="http://purl.org/dc/elements/1.1/"
   xmlns:cc="http://creativecommons.org/ns#"
   xmlns:rdf="http://www.w3.org/1999/02/22-rdf-syntax-ns#"
   xmlns:svg="http://www.w3.org/2000/svg"
   xmlns="http://www.w3.org/2000/svg"
   xmlns:sodipodi="http://sodipodi.sourceforge.net/DTD/sodipodi-0.dtd"
   xmlns:inkscape="http://www.inkscape.org/namespaces/inkscape"
   width="41.729721mm"
   height="73.578156mm"
   viewBox="0 0 147.86122 260.71"
   id="svg7507"
   version="1.1"
   inkscape:version="0.91 r13725"
   sodipodi:docname="map_marker.svg">
  <defs
     id="defs7509" />
  <sodipodi:namedview
     id="base"
     pagecolor="#ffffff"
     bordercolor="#666666"
     borderopacity="1.0"
     inkscape:pageopacity="0.0"
     inkscape:pageshadow="2"
     inkscape:zoom="0.19003906"
     inkscape:cx="-884.69005"
     inkscape:cy="592.03749"
     inkscape:document-units="px"
     inkscape:current-layer="layer1"
     showgrid="false"
     fit-margin-top="0"
     fit-margin-left="0"
     fit-margin-right="0"
     fit-margin-bottom="0"
     inkscape:window-width="1366"
     inkscape:window-height="705"
     inkscape:window-x="1016"
     inkscape:window-y="-8"
     inkscape:window-maximized="1" />
  <metadata
     id="metadata7512">
    <rdf:RDF>
      <cc:Work
         rdf:about="">
        <dc:format>image/svg+xml</dc:format>
        <dc:type
           rdf:resource="http://purl.org/dc/dcmitype/StillImage" />
        <dc:title></dc:title>
      </cc:Work>
    </rdf:RDF>
  </metadata>
  <g
     inkscape:label="Capa 1"
     inkscape:groupmode="layer"
     id="layer1"
     transform="translate(-331.24925,-248.46147)">
    <g
       id="g7430"
       transform="matrix(1.25,0,0,-1.25,-653.66076,811.14636)">
      <g
         transform="translate(290.14523,-7.0328284)"
         id="g7137">
        <path
           inkscape:connector-curvature="0"
           id="path1976"
           style="fill:#a62438;fill-opacity:1;fill-rule:evenodd;stroke:none"
           d="m 556.92675,457.18074 c -32.665,0 -59.14397,-26.479 -59.14397,-59.144 0,-6.936 1.842,-16.505 4.498,-22.664 l 54.64497,-126.76 54.895,127.364 c 2.4,5.57 4.251,15.123 4.251,22.06 0,32.665 -26.48,59.144 -59.145,59.144" />
        <path
           inkscape:connector-curvature="0"
           id="path1978"
           style="fill:#df314a;fill-opacity:1;fill-rule:evenodd;stroke:none"
           d="m 556.92675,457.18074 -10e-4,0 0,-208.568 54.895,127.364 c 2.4,5.57 4.251,15.123 4.251,22.06 0,32.665 -26.48,59.144 -59.145,59.144" />
        <path
           inkscape:connector-curvature="0"
           id="path1980"
           style="fill:#ffffff;fill-opacity:1;fill-rule:evenodd;stroke:none"
           d="m 556.92675,349.48774 c 26.74,0 48.549,21.81 48.549,48.549 0,26.74 -21.809,48.549 -48.549,48.549 -26.739,0 -48.54897,-21.809 -48.54897,-48.549 0,-26.739 21.80997,-48.549 48.54897,-48.549" />
      </g>
      <path
         inkscape:connector-curvature="0"
         id="path7428"
         d="m 839.83745,346.79159 c -1.77907,0.309 -5.10606,1.26769 -7.39332,2.13042 -29.20387,11.01549 -38.27787,49.35424 -17.22545,72.7796 13.56965,15.09915 33.50001,18.84328 51.45242,9.66589 4.86523,-2.48716 6.91245,-4.03224 11.07789,-8.36077 4.18322,-4.34701 5.63886,-6.43429 8.02807,-11.51165 7.96015,-16.91641 5.73402,-35.45552 -5.99833,-49.9547 -8.99407,-11.1152 -25.58627,-17.24206 -39.94128,-14.74879 z m -16.01091,22.46291 c 1.14126,1.42898 0.58758,6.96732 -0.78337,7.83571 -0.90971,0.57624 -1.32138,0.46585 -2.04643,-0.54878 -1.20585,-1.68747 -1.15788,-5.90109 0.0819,-7.18936 1.22263,-1.2705 1.79496,-1.29082 2.74794,-0.0976 z m 8.1004,-0.14547 c 0.47361,0.49216 0.75561,2.94176 0.75561,6.56378 0,4.74632 -0.18402,5.85199 -1.0301,6.18937 -2.23541,0.89139 -3.05412,-0.66654 -3.24453,-6.17411 -0.1432,-4.14163 0.0334,-5.48074 0.83206,-6.31071 1.21224,-1.25969 1.68729,-1.30714 2.68696,-0.26833 z m 8.77463,1.22946 c 0.93882,1.91207 1.0751,14.80513 0.18229,17.24535 -0.65373,1.78673 -2.39885,2.21173 -3.66768,0.89322 -0.51154,-0.53156 -0.75561,-3.58114 -0.75561,-9.44098 0,-7.0979 0.18314,-8.84611 1.01759,-9.71322 1.27128,-1.32105 2.2234,-1.02105 3.22341,1.01563 z m 8.00189,-0.5604 c 1.12427,1.66797 1.35603,9.21124 0.36612,11.91682 -0.73604,2.01174 -2.82993,2.24091 -3.77146,0.41278 -1.07647,-2.09016 -0.82615,-11.54623 0.33766,-12.75562 1.32637,-1.3783 1.90574,-1.29784 3.06768,0.42602 z m 8.18572,0 c 1.13001,1.67648 1.37351,10.47213 0.36613,13.22547 -0.73604,2.01174 -2.82994,2.24091 -3.77146,0.41278 -0.3585,-0.6961 -0.65183,-3.91398 -0.65183,-7.15084 0,-4.47775 0.23664,-6.13111 0.98949,-6.91343 1.32637,-1.3783 1.90573,-1.29784 3.06767,0.42602 z m 8.36957,0.5604 c 0.94482,1.92424 1.08673,17.39062 0.18229,19.86265 -0.73601,2.01174 -2.82994,2.24091 -3.77146,0.41277 -0.36331,-0.70544 -0.65183,-5.46336 -0.65183,-10.74962 0,-7.86053 0.1742,-9.665 1.0176,-10.54143 1.27127,-1.32105 2.2234,-1.02105 3.2234,1.01563 z m 8.00186,-0.5604 c 0.80519,1.19452 0.98024,3.71464 0.98024,14.111 0,13.08148 -0.34931,15.18804 -2.51869,15.18804 -2.18023,0 -2.51868,-2.09811 -2.51868,-15.61405 0,-11.021 0.15592,-13.24483 0.98945,-14.11101 1.3264,-1.3783 1.90578,-1.29784 3.06768,0.42602 z m -41.89045,21.11997 c 4.06846,4.13861 7.66498,7.52474 7.99229,7.52474 0.3273,0 2.56336,-2.06112 4.96902,-4.58027 2.56925,-2.69047 4.90423,-4.58028 5.65923,-4.58028 0.80922,0 4.31073,3.15087 9.45287,8.50623 4.49216,4.67842 8.46373,8.50623 8.82571,8.50623 0.36199,0 0.97898,-0.88334 1.37111,-1.96298 0.85289,-2.34799 2.94505,-2.64592 4.01345,-0.57152 1.03376,2.00728 0.51121,10.93095 -0.68619,11.71778 -0.51184,0.33635 -3.23359,0.61606 -6.0483,0.62157 -3.90992,0.007 -5.31306,-0.23455 -5.9454,-1.02631 -1.00953,-1.26404 -0.11013,-3.10174 1.68547,-3.44387 2.80444,-0.53436 2.29606,-1.54762 -4.1817,-8.33357 -3.62461,-3.79708 -7.11204,-7.20328 -7.74983,-7.56932 -0.97408,-0.55905 -1.94486,0.12851 -6.06699,4.29702 -2.69904,2.7294 -5.27059,4.96255 -5.71454,4.96255 -0.88577,0 -17.31683,-16.61537 -18.32101,-18.52652 -0.77181,-1.46893 0.32864,-3.06622 2.11247,-3.06622 0.72666,0 4.28043,3.09779 8.63234,7.52474 z"
         style="fill:#0e9cd9" />
    </g>
  </g>
</svg>
