<?xml version="1.0" encoding="utf-8"?>
<!-- Generator: Adobe Illustrator 22.1.0, SVG Export Plug-In . SVG Version: 6.00 Build 0)  -->
<svg version="1.1" id="Capa_1" xmlns="http://www.w3.org/2000/svg" xmlns:xlink="http://www.w3.org/1999/xlink" x="0px" y="0px"
	 viewBox="0 0 357.4 353.8" style="enable-background:new 0 0 357.4 353.8;" xml:space="preserve">
<style type="text/css">
	.st0{fill:#010002;stroke:#FFFFFF;stroke-width:4;stroke-miterlimit:10;}
</style>
<g>
	<circle class="st0" cx="178.7" cy="130" r="32.7"/>
	<path class="st0" d="M120.8,60.6c-3.2-3.2-8.3-3.2-11.5,0C71,98.9,71,161.1,109.3,199.4c1.6,1.6,3.7,2.4,5.7,2.4s4.2-0.8,5.7-2.4
		c3.2-3.2,3.2-8.3,0-11.5c-31.9-32-31.9-83.9,0-115.9C123.9,68.9,123.9,63.8,120.8,60.6z"/>
	<path class="st0" d="M236.6,199.4c1.6,1.6,3.7,2.4,5.7,2.4s4.2-0.8,5.7-2.4c18.5-18.5,28.8-43.2,28.8-69.4
		c0-26.2-10.2-50.9-28.8-69.4c-3.2-3.2-8.3-3.2-11.5,0c-3.2,3.2-3.2,8.3,0,11.5c15.5,15.5,24,36,24,57.9s-8.5,42.5-24,57.9
		C233.4,191.1,233.4,196.2,236.6,199.4z"/>
	<path class="st0" d="M290.6,253.4c1.6,1.6,3.7,2.4,5.7,2.4c2.1,0,4.2-0.8,5.7-2.4c68.1-68.1,68.1-178.8,0-246.9
		c-3.2-3.2-8.3-3.2-11.5,0s-3.2,8.3,0,11.5c61.7,61.7,61.7,162.2,0,223.9C287.5,245.1,287.5,250.3,290.6,253.4z"/>
	<path class="st0" d="M66.7,6.6c-3.2-3.2-8.3-3.2-11.5,0c-68.1,68.1-68.1,178.8,0,246.9c1.6,1.6,3.7,2.4,5.7,2.4s4.2-0.8,5.7-2.4
		c3.2-3.2,3.2-8.3,0-11.5C5,180.2,5,79.8,66.7,18.1C69.9,14.9,69.9,9.7,66.7,6.6z"/>
	<path class="st0" d="M170.6,194.4v147.2c0,4.5,3.6,8.1,8.1,8.1c4.5,0,8.1-3.6,8.1-8.1V194.4c0-4.5-3.6-8.1-8.1-8.1
		C174.2,186.2,170.6,189.9,170.6,194.4z"/>
</g>
</svg>
